<svg width="688" height="122" viewBox="0 0 688 122" fill="none" xmlns="http://www.w3.org/2000/svg">
<path d="M61.6323 14.6321V88.7921C61.6323 97.0481 59.0883 103.672 54.0003 108.664C48.9123 113.56 42.1923 116.008 33.8403 116.008C25.3923 116.008 18.6243 113.512 13.5363 108.52C8.4483 103.432 5.9043 96.5201 5.9043 87.7841H19.0083C19.1043 92.6801 20.3523 96.6641 22.7523 99.7361C25.2483 102.808 28.9443 104.344 33.8403 104.344C38.7363 104.344 42.3843 102.904 44.7843 100.024C47.1843 97.0481 48.3843 93.3041 48.3843 88.7921V14.6321H61.6323Z" fill="#1F2124" stroke="#1F2124" stroke-width="4"/>
<path d="M82.5511 75.256C82.5511 67.192 84.1832 60.136 87.4471 54.088C90.7111 47.944 95.1751 43.192 100.839 39.832C106.599 36.472 112.983 34.792 119.991 34.792C126.903 34.792 132.903 36.28 137.991 39.256C143.079 42.232 146.871 45.976 149.367 50.488V36.088H162.615V115H149.367V100.312C146.775 104.92 142.887 108.76 137.703 111.832C132.615 114.808 126.663 116.296 119.847 116.296C112.839 116.296 106.503 114.568 100.839 111.112C95.1751 107.656 90.7111 102.808 87.4471 96.568C84.1832 90.328 82.5511 83.224 82.5511 75.256ZM149.367 75.4C149.367 69.448 148.167 64.264 145.767 59.848C143.367 55.432 140.103 52.072 135.975 49.768C131.943 47.368 127.479 46.168 122.583 46.168C117.687 46.168 113.223 47.32 109.191 49.624C105.159 51.928 101.943 55.288 99.5431 59.704C97.1431 64.12 95.9431 69.304 95.9431 75.256C95.9431 81.304 97.1431 86.584 99.5431 91.096C101.943 95.512 105.159 98.92 109.191 101.32C113.223 103.624 117.687 104.776 122.583 104.776C127.479 104.776 131.943 103.624 135.975 101.32C140.103 98.92 143.367 95.512 145.767 91.096C148.167 86.584 149.367 81.352 149.367 75.4Z" fill="#1F2124" stroke="#1F2124" stroke-width="4"/>
<path d="M191.528 23.272C189.032 23.272 186.92 22.408 185.192 20.68C183.464 18.952 182.6 16.84 182.6 14.344C182.6 11.848 183.464 9.73602 185.192 8.00802C186.92 6.28002 189.032 5.41602 191.528 5.41602C193.928 5.41602 195.944 6.28002 197.576 8.00802C199.304 9.73602 200.168 11.848 200.168 14.344C200.168 16.84 199.304 18.952 197.576 20.68C195.944 22.408 193.928 23.272 191.528 23.272ZM197.864 36.088V115H184.76V36.088H197.864Z" fill="#1F2124" stroke="#1F2124" stroke-width="4"/>
<path d="M308.844 63.3041C312.492 63.8801 315.804 65.3681 318.78 67.7681C321.852 70.1681 324.252 73.1441 325.98 76.6961C327.804 80.2481 328.716 84.0401 328.716 88.0721C328.716 93.1601 327.42 97.7681 324.828 101.896C322.236 105.928 318.444 109.144 313.452 111.544C308.556 113.848 302.748 115 296.028 115H258.588V14.6321H294.588C301.404 14.6321 307.212 15.7841 312.012 18.0881C316.812 20.2961 320.412 23.3201 322.812 27.1601C325.212 31.0001 326.412 35.3201 326.412 40.1201C326.412 46.0721 324.78 51.0161 321.516 54.9521C318.348 58.7921 314.124 61.5761 308.844 63.3041ZM271.692 57.9761H293.724C299.868 57.9761 304.62 56.5361 307.98 53.6561C311.34 50.7761 313.02 46.7921 313.02 41.7041C313.02 36.6161 311.34 32.6321 307.98 29.7521C304.62 26.8721 299.772 25.4321 293.436 25.4321H271.692V57.9761ZM294.876 104.2C301.404 104.2 306.492 102.664 310.14 99.5921C313.788 96.5201 315.612 92.2481 315.612 86.7761C315.612 81.2081 313.692 76.8401 309.852 73.6721C306.012 70.4081 300.876 68.7761 294.444 68.7761H271.692V104.2H294.876Z" fill="#1F2124" stroke="#1F2124" stroke-width="4"/>
<path d="M386.069 34.6479C392.021 34.6479 397.397 35.9439 402.197 38.5359C406.997 41.0319 410.74 44.8239 413.428 49.9119C416.212 54.9999 417.604 61.1919 417.604 68.4879V115H404.645V70.36C404.645 62.488 402.677 56.488 398.741 52.36C394.805 48.136 389.428 46.0239 382.612 46.0239C375.7 46.0239 370.18 48.184 366.052 52.504C362.02 56.824 360.005 63.1119 360.005 71.3679V115H346.901V8.43994H360.005V47.32C362.597 43.288 366.148 40.1679 370.66 37.9599C375.268 35.7519 380.405 34.6479 386.069 34.6479Z" fill="#1F2124" stroke="#1F2124" stroke-width="4"/>
<path d="M434.114 75.256C434.114 67.192 435.746 60.136 439.01 54.088C442.274 47.944 446.738 43.192 452.402 39.832C458.162 36.472 464.546 34.792 471.554 34.792C478.466 34.792 484.466 36.28 489.554 39.256C494.642 42.232 498.434 45.976 500.93 50.488V36.088H514.178V115H500.93V100.312C498.338 104.92 494.45 108.76 489.266 111.832C484.178 114.808 478.226 116.296 471.41 116.296C464.402 116.296 458.066 114.568 452.402 111.112C446.738 107.656 442.274 102.808 439.01 96.568C435.746 90.328 434.114 83.224 434.114 75.256ZM500.93 75.4C500.93 69.448 499.73 64.264 497.33 59.848C494.93 55.432 491.666 52.072 487.538 49.768C483.506 47.368 479.042 46.168 474.146 46.168C469.25 46.168 464.786 47.32 460.754 49.624C456.722 51.928 453.506 55.288 451.106 59.704C448.706 64.12 447.506 69.304 447.506 75.256C447.506 81.304 448.706 86.584 451.106 91.096C453.506 95.512 456.722 98.92 460.754 101.32C464.786 103.624 469.25 104.776 474.146 104.776C479.042 104.776 483.506 103.624 487.538 101.32C491.666 98.92 494.93 95.512 497.33 91.096C499.73 86.584 500.93 81.352 500.93 75.4Z" fill="#1F2124" stroke="#1F2124" stroke-width="4"/>
<path d="M549.426 8.43994V115H536.322V8.43994H549.426Z" fill="#1F2124" stroke="#1F2124" stroke-width="4"/>
<path d="M584.864 8.43994V115H571.76V8.43994H584.864Z" fill="#1F2124" stroke="#1F2124" stroke-width="4"/>
<path d="M602.301 75.256C602.301 67.192 603.933 60.136 607.197 54.088C610.461 47.944 614.925 43.192 620.589 39.832C626.349 36.472 632.733 34.792 639.741 34.792C646.653 34.792 652.653 36.28 657.741 39.256C662.829 42.232 666.621 45.976 669.117 50.488V36.088H682.365V115H669.117V100.312C666.525 104.92 662.637 108.76 657.453 111.832C652.365 114.808 646.413 116.296 639.597 116.296C632.589 116.296 626.253 114.568 620.589 111.112C614.925 107.656 610.461 102.808 607.197 96.568C603.933 90.328 602.301 83.224 602.301 75.256ZM669.117 75.4C669.117 69.448 667.917 64.264 665.517 59.848C663.117 55.432 659.853 52.072 655.725 49.768C651.693 47.368 647.229 46.168 642.333 46.168C637.437 46.168 632.973 47.32 628.941 49.624C624.909 51.928 621.693 55.288 619.293 59.704C616.893 64.12 615.693 69.304 615.693 75.256C615.693 81.304 616.893 86.584 619.293 91.096C621.693 95.512 624.909 98.92 628.941 101.32C632.973 103.624 637.437 104.776 642.333 104.776C647.229 104.776 651.693 103.624 655.725 101.32C659.853 98.92 663.117 95.512 665.517 91.096C667.917 86.584 669.117 81.352 669.117 75.4Z" fill="#1F2124" stroke="#1F2124" stroke-width="4"/>
</svg>
